# File created by Blade
# Date/Time:  Tue Sep 30 19:31:19 2014
#---------------------------------------------------------
:version 1.10
:name HOM
:units
  mass 1.0
  length 1.000000
  angle deg
:documentation
     Acclaim Skeleton File
:root
   axis xyz
   order TX TY TZ RX RY RZ
   position 0.000000 0.000000 0.000000
   orientation 0 0 0
:bonedata
   begin
      id 1
      name Spine_dum
      direction 0.000000 1.000000 0.000000
      length 3.241213
      axis 0.0 0.0 0.0 xyz
   end
   begin
      id 2
      name LeftUpLeg_dum
      direction 1.000000 0.000000 0.000000
      length 3.434019
      axis 0.0 0.0 0.0 xyz
   end
   begin
      id 3
      name RightUpLeg_dum
      direction -1.000000 0.000000 0.000000
      length 3.434019
      axis 0.0 0.0 0.0 xyz
   end
   begin
      id 4
      name Spine
      direction 0.000000 1.000000 0.000000
      length 0.000000
      axis 0.0 0.0 0.0 xyz
      dof rx ry rz
   end
   begin
      id 5
      name Spine_dum1
      direction 0.000000 1.000000 0.000000
      length 18.382958
      axis 0.0 0.0 0.0 xyz
   end
   begin
      id 6
      name Spine_dum2
      direction 0.000000 1.000000 0.000000
      length 12.828261
      axis 0.0 0.0 0.0 xyz
   end
   begin
      id 7
      name Spine_dum3
      direction 0.000000 1.000000 0.000000
      length 12.828261
      axis 0.0 0.0 0.0 xyz
   end
   begin
      id 8
      name Head
      direction 0.000000 1.000000 0.000000
      length 4.527550
      axis 0.0 0.0 0.0 xyz
      dof rx ry rz
   end
   begin
      id 9
      name LeftShoulder
      direction 1.000000 0.000000 0.000000
      length 7.748055
      axis 0.0 0.0 -90.0 xyz
      dof rx ry rz
   end
   begin
      id 10
      name LeftArm
      direction 1.000000 0.000000 0.000000
      length 10.635614
      axis 0.0 0.0 -90.0 xyz
      dof rx ry rz
   end
   begin
      id 11
      name LeftForeArm
      direction 1.000000 0.000000 0.000000
      length 8.346755
      axis 0.0 0.0 -90.0 xyz
      dof ry rz rx
   end
   begin
      id 12
      name LeftHand
      direction 0.000000 0.000000 0.000000
      length 0.000000
      axis 0.0 0.0 -90.0 xyz
      dof rx ry rz
   end
   begin
      id 13
      name LeftHand_dum1
      direction 0.000000 0.000000 0.000000
      length 0.000000
      axis 0.0 0.0 -90.0 xyz
   end
   begin
      id 14
      name LeftHand_dum2
      direction 1.000000 0.000000 0.000000
      length 3.937000
      axis 0.0 0.0 -90.0 xyz
   end
   begin
      id 15
      name LeftHandThumb1
      direction 0.000000 0.000000 1.000000
      length 3.937000
      axis 0.0 0.0 -90.0 xyz
      dof rx rz ry
   end
   begin
      id 16
      name RightShoulder
      direction -1.000000 0.000000 0.000000
      length 7.748055
      axis 0.0 0.0 90.0 xyz
      dof rx ry rz
   end
   begin
      id 17
      name RightArm
      direction -1.000000 0.000000 0.000000
      length 10.635614
      axis 0.0 0.0 90.0 xyz
      dof rx ry rz
   end
   begin
      id 18
      name RightForeArm
      direction -1.000000 0.000000 0.000000
      length 8.346755
      axis 0.0 0.0 90.0 xyz
      dof ry rz rx
   end
   begin
      id 19
      name RightHand
      direction 0.000000 0.000000 0.000000
      length 0.000000
      axis 0.0 0.0 90.0 xyz
      dof rx ry rz
   end
   begin
      id 20
      name RightHand_dum1
      direction 0.000000 0.000000 0.000000
      length 0.000000
      axis 0.0 0.0 90.0 xyz
   end
   begin
      id 21
      name RightHand_dum2
      direction -1.000000 0.000000 0.000000
      length 3.937000
      axis 0.0 0.0 90.0 xyz
   end
   begin
      id 22
      name RightHandThumb1
      direction 0.000000 0.000000 1.000000
      length 3.937000
      axis 0.0 0.0 90.0 xyz
      dof rx rz ry
   end
   begin
      id 23
      name LeftUpLeg
      direction 0.000000 -1.000000 0.000000
      length 15.713025
      axis 0.0 0.0 0.0 xyz
      dof rx ry rz
   end
   begin
      id 24
      name LeftLeg
      direction 0.000000 -1.000000 0.000000
      length 14.435119
      axis 0.0 0.0 0.0 xyz
      dof rx ry rz
   end
   begin
      id 25
      name LeftFoot
      direction 0.000000 -0.258819 0.965926
      length 4.938895
      axis 15.0 0.0 0.0 xyz
      dof rx ry rz
   end
   begin
      id 26
      name LeftToeBase
      direction 0.000000 0.000000 1.000000
      length 2.952750
      axis 0.0 0.0 0.0 xyz
      dof rx ry rz
   end
   begin
      id 27
      name RightUpLeg
      direction 0.000000 -1.000000 0.000000
      length 15.713025
      axis 0.0 0.0 0.0 xyz
      dof rx ry rz
   end
   begin
      id 28
      name RightLeg
      direction 0.000000 -1.000000 0.000000
      length 14.435119
      axis 0.0 0.0 0.0 xyz
      dof rx ry rz
   end
   begin
      id 29
      name RightFoot
      direction 0.000000 -0.258819 0.965926
      length 4.938895
      axis 15.0 0.0 0.0 xyz
      dof rx ry rz
   end
   begin
      id 30
      name RightToeBase
      direction 0.000000 0.000000 1.000000
      length 2.952750
      axis 0.0 0.0 0.0 xyz
      dof rx ry rz
   end
:hierarchy
   begin
      root Spine_dum LeftUpLeg_dum RightUpLeg_dum
      Spine_dum Spine
      LeftUpLeg_dum LeftUpLeg
      RightUpLeg_dum RightUpLeg
      Spine Spine_dum1 Spine_dum2 Spine_dum3
      Spine_dum1 Head
      Spine_dum2 LeftShoulder
      Spine_dum3 RightShoulder
      LeftShoulder LeftArm
      LeftArm LeftForeArm
      LeftForeArm LeftHand
      LeftHand LeftHand_dum1 LeftHand_dum2
      LeftHand_dum1 LeftHandThumb1
      RightShoulder RightArm
      RightArm RightForeArm
      RightForeArm RightHand
      RightHand RightHand_dum1 RightHand_dum2
      RightHand_dum1 RightHandThumb1
      LeftUpLeg LeftLeg
      LeftLeg LeftFoot
      LeftFoot LeftToeBase
      RightUpLeg RightLeg
      RightLeg RightFoot
      RightFoot RightToeBase
   end

# File created by Blade
# Date/Time:  Thu Sep 25 17:54:10 2014
# Frame Rate: 120.000 fps
#------------------------------------------------------
:FULLY-SPECIFIED
:DEGREES
931
root -0.209937 32.566351 -5.795884 26.888772 3.122152 0.582513
Spine -32.556895 -4.081783 1.843748
Head 22.966469 -3.671302 -4.930940
LeftShoulder -17.459675 20.123593 44.085631
LeftArm 172.383325 -46.588839 -137.793555
LeftForeArm -35.559025 -0.000000 97.828329
LeftHand -9.069305 0.000000 -4.493382
LeftHandThumb1 -26.253704 0.000000 33.147579
RightShoulder -14.802025 3.005924 -68.065087
RightArm 92.372423 56.735766 79.577647
RightForeArm 78.802906 -0.000000 75.354214
RightHand 6.900976 -0.000000 29.435963
RightHandThumb1 -24.326973 -0.000000 -32.862282
LeftUpLeg -20.417366 4.021526 0.025835
LeftLeg -1.259930 -0.000000 0.000000
LeftFoot -4.533707 -3.322136 -2.254860
LeftToeBase 2.933934 -0.000000 -0.000000
RightUpLeg -19.605605 -7.806054 4.174359
RightLeg -2.224324 -0.000000 0.000000
RightFoot -8.728109 -2.378225 11.787533
RightToeBase 16.071631 -0.000000 -0.000000
932
root -0.206089 32.569652 -5.790988 26.829394 3.137673 0.570765
Spine -32.487008 -4.062669 1.798205
Head 23.217483 -3.679336 -4.912530
LeftShoulder -17.578249 21.592116 43.429961
LeftArm 174.644360 -45.772360 -138.553075
LeftForeArm -35.738478 -0.000000 97.429601
LeftHand -8.917865 -0.000000 -4.406720
LeftHandThumb1 -26.253704 0.000000 33.147579
RightShoulder -14.918317 3.987588 -68.570133
RightArm 90.605594 56.395800 78.290315
RightForeArm 79.161062 -0.000000 76.310607
RightHand 6.671287 -0.000000 30.148431
RightHandThumb1 -24.326973 -0.000000 -32.862282
LeftUpLeg -20.340887 4.020313 0.038230
LeftLeg -1.283110 -0.000000 0.000000
LeftFoot -4.505928 -3.327538 -2.239645
LeftToeBase 2.954398 -0.000000 -0.000000
RightUpLeg -19.527966 -7.800381 4.158425
RightLeg -2.243007 -0.000000 0.000000
RightFoot -8.647457 -2.335686 11.948319
RightToeBase 15.946961 -0.000000 -0.000000
933
root -0.202520 32.573098 -5.786839 26.762399 3.148855 0.567885
Spine -32.408249 -4.060090 1.754167
Head 23.480961 -3.674410 -4.932139
LeftShoulder -17.702277 22.845780 42.887986
LeftArm 176.578002 -45.130339 -139.187497
LeftForeArm -35.858132 -0.000000 97.104495
LeftHand -8.899774 0.000000 -4.368476
LeftHandThumb1 -26.253704 0.000000 33.147579
RightShoulder -14.972712 4.571654 -68.867419
RightArm 89.713043 56.222985 77.612343
RightForeArm 79.604318 -0.000000 77.233532
RightHand 6.418282 -0.000000 30.848040
RightHandThumb1 -24.326973 -0.000000 -32.862282
LeftUpLeg -20.261140 4.017680 0.042225
LeftLeg -1.300463 -0.000000 0.000000
LeftFoot -4.463656 -3.338727 -2.248969
LeftToeBase 2.929588 -0.000000 -0.000000
RightUpLeg -19.450960 -7.827265 4.154657
RightLeg -2.249405 -0.000000 0.000000
RightFoot -8.603057 -2.345371 11.933012
RightToeBase 15.937446 -0.000000 -0.000000
934
root -0.199707 32.575958 -5.781641 26.697700 3.161770 0.564014
Spine -32.329121 -4.039960 1.693018
Head 23.710539 -3.662493 -4.909134
LeftShoulder -17.835498 24.072982 42.369162
LeftArm 178.406231 -44.433284 -139.791604
LeftForeArm -36.019780 -0.000000 96.798694
LeftHand -8.787844 -0.000000 -4.518041
LeftHandThumb1 -26.253704 0.000000 33.147579
RightShoulder -15.185875 5.647475 -69.319228
RightArm 87.925454 55.765616 76.251155
RightForeArm 80.018725 -0.000000 78.138340
RightHand 6.189997 -0.000000 31.582758
RightHandThumb1 -24.326973 -0.000000 -32.862282
LeftUpLeg -20.176096 4.003677 0.052633
LeftLeg -1.327838 -0.000000 0.000000
LeftFoot -4.431144 -3.333782 -2.256835
LeftToeBase 2.933967 -0.000000 -0.000000
RightUpLeg -19.371563 -7.853351 4.149618
RightLeg -2.256493 -0.000000 0.000000
RightFoot -8.579619 -2.320620 11.969930
RightToeBase 15.936819 -0.000000 -0.000000
935
root -0.196572 32.578595 -5.775799 26.621484 3.173425 0.561814
Spine -32.232553 -4.001681 1.621143
Head 23.964777 -3.614535 -4.922516
LeftShoulder -17.942234 24.933258 42.012554
LeftArm 179.825554 -44.043833 -140.208947
LeftForeArm -36.498998 -0.000000 96.528587
LeftHand -8.699264 -0.000000 -4.533044
LeftHandThumb1 -26.253704 0.000000 33.147579
RightShoulder -15.297280 6.061900 -69.518479
RightArm 87.246397 55.679932 75.703914
RightForeArm 80.407356 -0.000000 79.060825
RightHand 5.982818 -0.000000 32.065181
RightHandThumb1 -24.326973 -0.000000 -32.862282
LeftUpLeg -20.077403 4.004360 0.057738
LeftLeg -1.349796 -0.000000 0.000000
LeftFoot -4.477318 -3.391614 -2.460234
LeftToeBase 3.277730 -0.000000 -0.000000
RightUpLeg -19.277451 -7.873815 4.140902
RightLeg -2.271115 -0.000000 0.000000
RightFoot -8.561679 -2.318505 11.976700
RightToeBase 15.990797 -0.000000 -0.000000
936
root -0.194423 32.581809 -5.771115 26.572883 3.196612 0.541543
Spine -32.157415 -3.956947 1.580746
Head 24.206572 -3.504282 -4.921289
LeftShoulder -18.119551 26.251896 41.355761
LeftArm 181.792052 -43.359019 -140.978632
LeftForeArm -36.884755 -0.000000 96.229419
LeftHand -8.509156 0.000000 -4.630475
LeftHandThumb1 -26.253704 0.000000 33.147579
RightShoulder -15.481267 6.541296 -69.742615
RightArm 86.590916 55.484015 75.235286
RightForeArm 80.793620 -0.000000 79.974270
RightHand 5.851126 -0.000000 32.345155
RightHandThumb1 -24.326973 -0.000000 -32.862282
LeftUpLeg -20.018555 4.010799 0.074084
LeftLeg -1.370953 -0.000000 0.000000
LeftFoot -4.369381 -3.350525 -2.243624
LeftToeBase 2.911805 -0.000000 -0.000000
RightUpLeg -19.247554 -7.962637 4.189198
RightLeg -2.227633 -0.000000 0.000000
RightFoot -8.528057 -2.263615 11.954698
RightToeBase 15.953257 -0.000000 -0.000000
937
root -0.191436 32.584077 -5.765407 26.499091 3.204584 0.545985
Spine -32.043654 -3.889146 1.498804
Head 24.421025 -3.331476 -4.905608
LeftShoulder -18.118569 26.624356 41.252123
LeftArm 182.790974 -43.537308 -141.485141
LeftForeArm -37.241115 -0.000000 96.111632
LeftHand -8.123754 -0.000000 -4.563338
LeftHandThumb1 -26.253704 0.000000 33.147579
RightShoulder -15.773254 7.264751 -70.163798
RightArm 85.332538 55.128615 74.502448
RightForeArm 81.300682 0.000000 80.981738
RightHand 5.610943 -0.000000 32.801659
RightHandThumb1 -24.326973 -0.000000 -32.862282
LeftUpLeg -19.924896 4.013706 0.067587
LeftLeg -1.395731 -0.000000 0.000000
LeftFoot -4.334206 -3.353483 -2.222526
LeftToeBase 2.891207 -0.000000 -0.000000
RightUpLeg -19.137964 -7.941909 4.153421
RightLeg -2.274680 -0.000000 0.000000
RightFoot -8.486304 -2.287801 11.999853
RightToeBase 15.927086 -0.000000 -0.000000
938
root -0.189629 32.586889 -5.759982 26.431861 3.225126 0.541777
Spine -31.965326 -3.849496 1.420468
Head 24.676180 -3.456443 -5.097675
LeftShoulder -18.251801 27.544519 40.818736
LeftArm 184.080973 -42.953935 -141.803615
LeftForeArm -37.241990 -0.000000 95.826397
LeftHand -8.015347 0.000000 -5.017482
LeftHandThumb1 -26.253704 0.000000 33.147579
RightShoulder -15.962879 7.774562 -70.397268
RightArm 84.398546 54.960601 73.857056
RightForeArm 82.012714 -0.000000 81.899330
RightHand 5.375456 0.000000 33.041659
RightHandThumb1 -24.326973 -0.000000 -32.862282
LeftUpLeg -19.838734 3.995496 0.082084
LeftLeg -1.421563 -0.000000 0.000000
LeftFoot -4.300440 -3.345970 -2.222955
LeftToeBase 2.884477 -0.000000 -0.000000
RightUpLeg -19.057843 -7.969314 4.155919
RightLeg -2.279378 -0.000000 0.000000
RightFoot -8.502487 -2.305356 11.879430
RightToeBase 16.103058 -0.000000 -0.000000
939
root -0.188436 32.588831 -5.752363 26.366111 3.244454 0.527122
Spine -31.884260 -3.797987 1.348552
Head 24.876926 -3.493237 -5.211141
LeftShoulder -18.455014 28.930081 40.078991
LeftArm 186.030398 -42.022172 -142.501916
LeftForeArm -37.464507 -0.000000 95.443018
LeftHand -8.071874 -0.000000 -5.384472
LeftHandThumb1 -26.253704 0.000000 33.147579
RightShoulder -16.198900 8.336119 -70.685012
RightArm 83.270683 54.741450 73.122187
RightForeArm 83.105556 0.000000 82.735990
RightHand 5.436045 -0.000000 32.980608
RightHandThumb1 -24.326973 -0.000000 -32.862282
LeftUpLeg -19.750617 4.013787 0.096607
LeftLeg -1.448454 -0.000000 0.000000
LeftFoot -4.273684 -3.373930 -2.211897
LeftToeBase 2.886955 -0.000000 -0.000000
RightUpLeg -19.008490 -8.081931 4.200948
RightLeg -2.234305 -0.000000 0.000000
RightFoot -8.436368 -2.199836 11.935593
RightToeBase 15.923864 -0.000000 -0.000000
940
root -0.185885 32.589938 -5.746638 26.324761 3.275965 0.519487
Spine -31.817499 -3.757058 1.293830
Head 25.087286 -3.402054 -5.298061
LeftShoulder -18.658557 30.083923 39.409245
LeftArm 187.801014 -41.415189 -143.205804
LeftForeArm -37.527631 -0.000000 95.077001
LeftHand -7.884292 -0.000000 -5.406634
LeftHandThumb1 -26.253704 0.000000 33.147579
RightShoulder -16.506054 9.141472 -71.164526
RightArm 81.549043 54.400443 72.047315
RightForeArm 84.353443 0.000000 83.461194
RightHand 5.097065 -0.000000 33.408720
RightHandThumb1 -24.326973 -0.000000 -32.862282
LeftUpLeg -19.690596 3.987454 0.113722
LeftLeg -1.476446 -0.000000 0.000000
LeftFoot -4.254367 -3.366820 -2.231854
LeftToeBase 2.883712 -0.000000 -0.000000
RightUpLeg -18.953933 -8.134786 4.218386
RightLeg -2.239359 -0.000000 0.000000
RightFoot -8.444231 -2.184137 11.873152
RightToeBase 16.019824 -0.000000 -0.000000
941
root -0.183677 32.591132 -5.740615 26.288208 3.295582 0.524694
Spine -31.756785 -3.708536 1.210435
Head 25.312652 -3.333903 -5.367371
LeftShoulder -18.823705 30.840406 38.950337
LeftArm 188.949208 -40.935640 -143.550676
LeftForeArm -37.429002 -0.000000 94.872938
LeftHand -8.047766 -0.000000 -5.649805
LeftHandThumb1 -26.253704 0.000000 33.147579
RightShoulder -16.738685 9.474425 -71.414054
RightArm 80.681387 54.303847 71.579724
RightForeArm 85.487776 -0.000000 84.016634
RightHand 4.581327 -0.000000 33.898624
RightHandThumb1 -24.326973 -0.000000 -32.862282
LeftUpLeg -19.632475 3.986328 0.108485
LeftLeg -1.501727 -0.000000 0.000000
LeftFoot -4.234567 -3.377330 -2.227168
LeftToeBase 2.907632 -0.000000 -0.000000
RightUpLeg -18.902297 -8.173885 4.214761
RightLeg -2.248523 -0.000000 0.000000
RightFoot -8.401578 -2.151980 11.949284
RightToeBase 15.940060 -0.000000 -0.000000
